<svg width="48" height="48" viewBox="0 0 48 48" fill="none" xmlns="http://www.w3.org/2000/svg">
<path fill-rule="evenodd" clip-rule="evenodd" d="M24 48C37.2552 48 48 37.2548 48 24C48 10.7452 37.2552 0 24 0C10.7452 0 0 10.7452 0 24C0 37.2548 10.7452 48 24 48Z" fill="#CC4545"/>
<g filter="url(#filter0_d_460_1518)">
<path fill-rule="evenodd" clip-rule="evenodd" d="M20.1912 31.7058C20.9561 32.4657 22.1964 32.4657 22.9611 31.7058L35.4263 19.322C36.1912 18.562 36.1912 17.3299 35.4263 16.5699C34.6615 15.81 33.4216 15.81 32.6567 16.5699L21.5762 27.5779L15.3437 21.3859C14.5788 20.6259 13.3386 20.6259 12.5737 21.3859C11.8088 22.1458 11.8088 23.378 12.5737 24.1379L20.1912 31.7058Z" fill="white"/>
</g>
<defs>
<filter id="filter0_d_460_1518" x="10.95" y="16" width="32.4" height="24.6759" filterUnits="userSpaceOnUse" color-interpolation-filters="sRGB">
<feFlood flood-opacity="0" result="BackgroundImageFix"/>
<feColorMatrix in="SourceAlpha" type="matrix" values="0 0 0 0 0 0 0 0 0 0 0 0 0 0 0 0 0 0 127 0" result="hardAlpha"/>
<feOffset dx="3.15" dy="4.2"/>
<feGaussianBlur stdDeviation="2.1"/>
<feColorMatrix type="matrix" values="0 0 0 0 0 0 0 0 0 0 0 0 0 0 0 0 0 0 0.2 0"/>
<feBlend mode="normal" in2="BackgroundImageFix" result="effect1_dropShadow_460_1518"/>
<feBlend mode="normal" in="SourceGraphic" in2="effect1_dropShadow_460_1518" result="shape"/>
</filter>
</defs>
</svg>
