<svg width="48" height="48" viewBox="0 0 48 48" fill="none" xmlns="http://www.w3.org/2000/svg">
<path d="M37.9437 30.9634V35.1785C37.9453 35.5698 37.8651 35.9571 37.7083 36.3157C37.5516 36.6742 37.3216 36.9961 37.0333 37.2606C36.745 37.5251 36.4045 37.7265 36.0339 37.8519C35.6632 37.9773 35.2704 38.0238 34.8807 37.9886C30.5571 37.5188 26.404 36.0414 22.7551 33.6751C19.3603 31.5179 16.4821 28.6397 14.3249 25.2449C11.9503 21.5794 10.4726 17.4061 10.0114 13.0631C9.97629 12.6746 10.0225 12.283 10.147 11.9133C10.2715 11.5436 10.4717 11.2038 10.7347 10.9157C10.9977 10.6276 11.3178 10.3974 11.6747 10.2397C12.0315 10.0821 12.4173 10.0005 12.8074 10.0001H17.0226C17.7044 9.99343 18.3655 10.2349 18.8825 10.6795C19.3995 11.1242 19.7372 11.7416 19.8327 12.4168C20.0106 13.7657 20.3405 15.0902 20.8162 16.365C21.0052 16.8679 21.0461 17.4144 20.9341 17.9399C20.822 18.4653 20.5617 18.9476 20.1839 19.3296L18.3995 21.114C20.3997 24.6316 23.3122 27.5441 26.8298 29.5443L28.6142 27.7599C28.9962 27.3821 29.4785 27.1218 30.0039 27.0097C30.5294 26.8977 31.0759 26.9386 31.5788 27.1276C32.8536 27.6033 34.1781 27.9332 35.527 28.1111C36.2095 28.2074 36.8328 28.5512 37.2784 29.0771C37.724 29.603 37.9608 30.2743 37.9437 30.9634Z" stroke="#222222" stroke-width="2" stroke-linecap="round" stroke-linejoin="round"/>
</svg>
