<svg width="48" height="48" viewBox="0 0 48 48" fill="none" xmlns="http://www.w3.org/2000/svg">
<path d="M39 20.6667C39 32.3334 24 42.3334 24 42.3334C24 42.3334 9 32.3334 9 20.6667C9 16.6885 10.5804 12.8732 13.3934 10.0601C16.2064 7.2471 20.0218 5.66675 24 5.66675C27.9782 5.66675 31.7936 7.2471 34.6066 10.0601C37.4196 12.8732 39 16.6885 39 20.6667Z" stroke="#CC4545" stroke-width="2" stroke-linecap="round" stroke-linejoin="round"/>
<path d="M24 25.6667C26.7614 25.6667 29 23.4282 29 20.6667C29 17.9053 26.7614 15.6667 24 15.6667C21.2386 15.6667 19 17.9053 19 20.6667C19 23.4282 21.2386 25.6667 24 25.6667Z" stroke="#CC4545" stroke-width="2" stroke-linecap="round" stroke-linejoin="round"/>
</svg>
