<svg width="48" height="48" viewBox="0 0 48 48" fill="none" xmlns="http://www.w3.org/2000/svg">
<g opacity="0.99">
<path d="M37.333 31.9167H40.6663V26.6284C40.667 25.7965 40.4952 24.9725 40.1606 24.2037C39.826 23.4349 39.3352 22.7362 38.7163 22.1476L35.6663 19.2501H27.333V31.9167H28.9997M20.6663 31.9167H27.333V12.9167H7.33301V31.9167H12.333H20.6663Z" stroke="#CC4545" stroke-width="2" stroke-linecap="round" stroke-linejoin="round"/>
<path d="M33.1667 36.6667C35.4678 36.6667 37.3333 34.8945 37.3333 32.7083C37.3333 30.5222 35.4678 28.75 33.1667 28.75C30.8655 28.75 29 30.5222 29 32.7083C29 34.8945 30.8655 36.6667 33.1667 36.6667Z" stroke="#CC4545" stroke-width="2" stroke-linecap="round" stroke-linejoin="round"/>
<path d="M16.4997 36.6667C18.8009 36.6667 20.6663 34.8945 20.6663 32.7083C20.6663 30.5222 18.8009 28.75 16.4997 28.75C14.1985 28.75 12.333 30.5222 12.333 32.7083C12.333 34.8945 14.1985 36.6667 16.4997 36.6667Z" fill="white" stroke="#CC4545" stroke-width="2" stroke-linecap="round" stroke-linejoin="round"/>
</g>
</svg>
