<svg width="48" height="48" viewBox="0 0 48 48" fill="none" xmlns="http://www.w3.org/2000/svg">
<path d="M39 8.16675V17.6667H29" stroke="#CC4545" stroke-width="2" stroke-linecap="round" stroke-linejoin="round"/>
<path d="M9 24C9.00264 21.2502 9.84266 18.5599 11.4188 16.2536C12.9949 13.9472 15.2397 12.1233 17.8825 11.0019C20.5253 9.88045 23.4532 9.50937 26.3131 9.9334C29.173 10.3574 31.8426 11.5585 34 13.3916L39 17.6666" stroke="#CC4545" stroke-width="2" stroke-linecap="round" stroke-linejoin="round"/>
<path d="M9 39.8333V30.3333H19" stroke="#CC4545" stroke-width="2" stroke-linecap="round" stroke-linejoin="round"/>
<path d="M39 24C38.9974 26.7497 38.1573 29.44 36.5812 31.7464C35.0051 34.0528 32.7603 35.8766 30.1175 36.9981C27.4747 38.1195 24.5468 38.4906 21.6869 38.0666C18.827 37.6425 16.1574 36.4415 14 34.6083L9 30.3333" stroke="#CC4545" stroke-width="2" stroke-linecap="round" stroke-linejoin="round"/>
</svg>
