<svg width="48" height="48" viewBox="0 0 48 48" fill="none" xmlns="http://www.w3.org/2000/svg">
<g clip-path="url(#clip0_422_441)">
<path d="M15.1126 10C12.2805 10 10 12.2805 10 15.1126V32.8874C10 35.7196 12.2805 38 15.1126 38H24.7464V27.0538H21.8519V23.1128H24.7464V19.7458C24.7464 17.1005 26.4566 14.6716 30.3963 14.6716C31.9914 14.6716 33.1709 14.8248 33.1709 14.8248L33.0781 18.505C33.0781 18.505 31.8752 18.4937 30.5625 18.4937C29.1418 18.4937 28.914 19.1482 28.914 20.2349V23.1128H33.191L33.0046 27.0538H28.914V38.0001H32.8874C35.7195 38.0001 38 35.7196 38 32.8874V15.1127C38 12.2805 35.7195 10 32.8874 10H15.1126L15.1126 10Z" fill="#222222"/>
</g>
<defs>
<clipPath id="clip0_422_441">
<rect width="28" height="28" fill="white" transform="translate(10 10)"/>
</clipPath>
</defs>
</svg>
