<svg width="48" height="48" viewBox="0 0 48 48" fill="none" xmlns="http://www.w3.org/2000/svg">
<path fill-rule="evenodd" clip-rule="evenodd" d="M18.2282 10.084C19.7211 10.0153 20.1971 10 24 10C27.8029 10 28.2789 10.0165 29.7705 10.084C31.2622 10.1515 32.2804 10.3895 33.1713 10.7344C34.1042 11.0869 34.9505 11.638 35.6505 12.3507C36.3633 13.0495 36.9131 13.8945 37.2644 14.8287C37.6105 15.7196 37.8473 16.7378 37.916 18.2269C37.9847 19.7224 38 20.1984 38 24C38 27.8029 37.9835 28.2789 37.916 29.7718C37.8485 31.2609 37.6105 32.2791 37.2644 33.17C36.9131 34.1043 36.3624 34.9508 35.6505 35.6505C34.9505 36.3633 34.1042 36.9131 33.1713 37.2644C32.2804 37.6105 31.2622 37.8473 29.7731 37.916C28.2789 37.9847 27.8029 38 24 38C20.1971 38 19.7211 37.9835 18.2282 37.916C16.7391 37.8485 15.7209 37.6105 14.83 37.2644C13.8957 36.913 13.0492 36.3623 12.3495 35.6505C11.6372 34.9514 11.086 34.1053 10.7344 33.1713C10.3895 32.2804 10.1527 31.2622 10.084 29.7731C10.0153 28.2776 10 27.8016 10 24C10 20.1971 10.0165 19.7211 10.084 18.2295C10.1515 16.7378 10.3895 15.7196 10.7344 14.8287C11.0866 13.8946 11.6382 13.0486 12.3507 12.3495C13.0495 11.6374 13.8951 11.0862 14.8287 10.7344C15.7196 10.3895 16.7378 10.1527 18.2269 10.084H18.2282ZM29.6573 12.604C28.1809 12.5365 27.738 12.5225 24 12.5225C20.262 12.5225 19.8191 12.5365 18.3427 12.604C16.9771 12.6664 16.2364 12.8942 15.7425 13.0864C15.0896 13.3409 14.6225 13.6425 14.1325 14.1325C13.6681 14.5844 13.3106 15.1345 13.0864 15.7425C12.8942 16.2364 12.6664 16.9771 12.604 18.3427C12.5365 19.8191 12.5225 20.262 12.5225 24C12.5225 27.738 12.5365 28.1809 12.604 29.6573C12.6664 31.0229 12.8942 31.7636 13.0864 32.2575C13.3104 32.8645 13.668 33.4156 14.1325 33.8675C14.5844 34.332 15.1355 34.6896 15.7425 34.9136C16.2364 35.1058 16.9771 35.3336 18.3427 35.396C19.8191 35.4635 20.2607 35.4775 24 35.4775C27.7393 35.4775 28.1809 35.4635 29.6573 35.396C31.0229 35.3336 31.7636 35.1058 32.2575 34.9136C32.9104 34.6591 33.3775 34.3575 33.8675 33.8675C34.332 33.4156 34.6896 32.8645 34.9136 32.2575C35.1058 31.7636 35.3336 31.0229 35.396 29.6573C35.4635 28.1809 35.4775 27.738 35.4775 24C35.4775 20.262 35.4635 19.8191 35.396 18.3427C35.3336 16.9771 35.1058 16.2364 34.9136 15.7425C34.6591 15.0896 34.3575 14.6225 33.8675 14.1325C33.4155 13.6681 32.8654 13.3106 32.2575 13.0864C31.7636 12.8942 31.0229 12.6664 29.6573 12.604ZM22.2118 28.3158C23.2105 28.7315 24.3225 28.7876 25.3579 28.4746C26.3933 28.1615 27.288 27.4986 27.889 26.5992C28.49 25.6998 28.7601 24.6197 28.6532 23.5432C28.5462 22.4668 28.0689 21.4609 27.3027 20.6973C26.8143 20.2092 26.2237 19.8354 25.5735 19.6029C24.9233 19.3704 24.2296 19.285 23.5424 19.3528C22.8553 19.4206 22.1916 19.6399 21.5994 19.9949C21.0071 20.3499 20.5009 20.8319 20.1173 21.406C19.7336 21.9801 19.4821 22.6322 19.3807 23.3152C19.2793 23.9983 19.3306 24.6953 19.5309 25.3561C19.7312 26.0169 20.0755 26.6251 20.5391 27.1369C21.0027 27.6487 21.574 28.0513 22.2118 28.3158ZM18.9116 18.9116C19.5798 18.2434 20.3731 17.7134 21.2462 17.3517C22.1193 16.9901 23.055 16.804 24 16.804C24.945 16.804 25.8807 16.9901 26.7538 17.3517C27.6269 17.7134 28.4202 18.2434 29.0884 18.9116C29.7566 19.5798 30.2866 20.3731 30.6483 21.2462C31.0099 22.1193 31.196 23.055 31.196 24C31.196 24.945 31.0099 25.8807 30.6483 26.7538C30.2866 27.6269 29.7566 28.4202 29.0884 29.0884C27.7388 30.4379 25.9085 31.196 24 31.196C22.0915 31.196 20.2612 30.4379 18.9116 29.0884C17.5621 27.7388 16.804 25.9085 16.804 24C16.804 22.0915 17.5621 20.2612 18.9116 18.9116ZM32.792 17.8756C32.9576 17.7194 33.0902 17.5316 33.1818 17.3232C33.2735 17.1149 33.3225 16.8903 33.3258 16.6626C33.3291 16.435 33.2867 16.2091 33.2012 15.9981C33.1156 15.7872 32.9886 15.5956 32.8276 15.4346C32.6666 15.2736 32.475 15.1466 32.2641 15.061C32.0531 14.9754 31.8272 14.9331 31.5995 14.9364C31.3719 14.9397 31.1473 14.9887 30.9389 15.0803C30.7306 15.172 30.5427 15.3046 30.3865 15.4702C30.0828 15.7922 29.9164 16.22 29.9229 16.6626C29.9293 17.1053 30.1081 17.528 30.4211 17.8411C30.7342 18.1541 31.1569 18.3328 31.5995 18.3393C32.0422 18.3457 32.47 18.1794 32.792 17.8756Z" fill="#222222"/>
</svg>
